<?xml version="1.0" standalone="no"?>
<!DOCTYPE svg PUBLIC "-//W3C//DTD SVG 20010904//EN"
 "http://www.w3.org/TR/2001/REC-SVG-20010904/DTD/svg10.dtd">
<svg version="1.0" xmlns="http://www.w3.org/2000/svg"
 width="3000.000000pt" height="2500.000000pt" viewBox="0 0 3000.000000 2500.000000"
 preserveAspectRatio="xMidYMid meet">

<g transform="translate(0.000000,2500.000000) scale(0.100000,-0.100000)"
fill="#000000" stroke="none">
<path d="M12895 16749 c-931 -10 -1017 -21 -1305 -170 -202 -104 -431 -295
-623 -518 -113 -132 -174 -224 -247 -376 -68 -141 -94 -219 -114 -336 -41
-235 -41 -261 -40 -2784 1 -2484 4 -2761 39 -2930 83 -401 412 -858 802 -1112
104 -68 312 -168 471 -227 l124 -46 2856 0 c1623 1 2914 5 2990 10 154 10 272
39 437 107 265 108 520 286 692 482 197 225 377 571 412 791 18 115 31 497 38
1148 3 347 10 632 15 632 4 0 8 506 8 1125 0 619 -4 1125 -8 1125 -5 0 -12
269 -15 598 -7 605 -19 964 -38 1082 -45 295 -291 702 -574 952 -202 178 -435
306 -734 402 l-174 56 -2191 -2 c-1205 -1 -2474 -5 -2821 -9z m10 -1852 c133
-64 280 -199 1160 -1063 822 -806 3206 -3189 3310 -3309 122 -139 160 -198
159 -247 -2 -64 -31 -124 -85 -172 -61 -55 -136 -84 -250 -99 -199 -25 -311
47 -795 511 -131 126 -664 652 -1184 1167 -1247 1237 -1634 1610 -1765 1701
-64 44 -138 56 -173 28 -56 -47 -68 -245 -81 -1311 -19 -1544 -30 -1808 -78
-1923 -21 -53 -61 -89 -137 -126 -103 -50 -142 -53 -220 -16 -129 60 -202 167
-217 315 -4 44 -11 895 -14 1891 -7 1873 -1 2401 28 2483 35 102 154 198 252
202 11 1 52 -14 90 -32z"/>
</g>
</svg>
